<?xml version="1.0" encoding="UTF-8"?>
<svg viewBox="0 0 988 1012" xmlns="http://www.w3.org/2000/svg">
 <g fill-rule="evenodd">
  <path d="m354 683v-5q0-3 0-11t1-8q2 1 4 5 3 5 2 9 0 3 0 6 1 3-1 5-1 2-4 1-2-1-2-2z" fill="#e2e2e2" stroke="#e2e2e2"/>
  <g fill="#efbc13">
   <path d="m235 492l-1 9v1h-7l-3-2q-4-2-6-3-2 0-6-4-3-5-4-5t-4-5q-2-5-3-6-1 0-3-4-1-3-2-9t-2-7q-1 0 0-5 2-5 1-6 0-1-6-4-5-3-7-4-1 0 2-9 2-9 8-13t20-4q13 0 16 6 4 5 3 9-1 3-2 5-1 1 1 7 0 6 3 15 3 8 3 19t-1 19z" stroke="#0e0e0e"/>
   <path d="m381 493h-1v5h-4l-2-1h-1l-1-5q-1-4-2-5-2-1-2-11-2-9-13-14-11-6-14-10-2-4-3-5-1 0-2-9 0-9 0-12t-1-7 1-7q2-2 4-8t5-8q2-2 7-4 6-2 14 0t13 4q5 3 6 10 1 8 3 14t2 8q2 3 2 18 0 16-3 18-3 1-3 14-1 12-3 14-2 0-2 1z" stroke="#0d0d0d"/>
  </g>
  <path d="m385 914q0-2 3-2 4 0 3 2t-4 2-2-2z" fill="#d3d3d3" stroke="#d3d3d3"/>
  <g fill="#efbc13">
   <path d="m567 508l-3 1-2 1h-1l-1-1-1-1h-1v-4q-2-3-1-10t2-12q1-6 0-6-1-1-3-4t-4-4-3-4q-1-2-3-5-2-2-1-11 1-10 3-14 2-3 2-5t1-3q1 0 4-5t3-7 3-4q3-1 3-8 2-6 12-7t16 3 8 7 4 11q2 7 1 16t-3 15-3 11q-2 4-3 4t-4 6q-4 6-8 18-4 11-8 16-3 4-6 5-2 1-3 1z" stroke="#0d0d0d"/>
   <path d="m546 32h7q4 0 7 2 4 2 8 1 3-1 10 2 8 4 10 13 4 8 4 12t2 6q0 1 2 12 0 11 1 12 1 0 1 2v1l-1 1-1 1v1h-6q-6 0-7-2t-3-3-3-2-8-9-10-10q-2-2-3-7 0-5-2-6-1-1-3-7-3-7-5-11l-4-4v-2q0-1 1-2t3-1z" stroke="#101010"/>
  </g>
  <path d="m188 963h-1v1h-1v1h-1v1h-3l-2 1-2 1h-2l-2-1h-1v-1l-1-1v-11q0-12 0-70 0-59 1-67 1-9 3-7 2 1 2 4 0 2 1 6 1 3 3 4 2 0 1 6-1 5-2 9-1 3-1 4t2 7 3 9 1 4q-2 1 0 7 0 6 2 7 0 1 1 7 0 6 0 9-1 3 1 7 0 5 0 14 0 10 2 12 0 3 0 10-2 6-3 7t-3 5q0 3 0 8t1 6q1 0 1 1z" fill="#efefef" stroke="#efefef"/>
  <g fill="#efbc13">
   <path d="m803 295v1h-4l-1-1h-1l-1-2q-1-1-2-2-1 0-3-5-1-5-3-8t-2-4q2-2 2-10 0-9 3-18 2-10 3-10t2-3q2-3 12-1 9 2 13 5 5 3 5 11t-4 20q-4 11-8 17-5 7-8 8-2 2-3 2z" stroke="#0f0f0f"/>
   <path d="m585 321v-2h1q1 0 1 1t3 3q4 1 8 5t8 5q3 0 3-4 0-3 5-3 4 0 9 5 5 4 5 13t1 18q0 10 2 11 3 1 4 3t6 3q5 2 6 6 1 5 7 7t14 2q7-2 8-4 0-4-2-4-1-1-1-10 1-8 1-9t1-1q1-1 3-6 2-6 4-7 1-1 4-1 2 0 3 3t2 7q0 4 11 4 12 1 16 8 3 6 4 6t2 3q0 3-2 4-1 1-1 2t-7 3q-7 3-8 4 0 2-10 4-11 4-13 4-2 1-1 4 2 2 3 3t0 3q-1 3-3 7t-4 5q-2 2-4 8-2 5 1 14 3 10 4 10t4 7 4 13 2 6 7 18q6 19 8 23t4 7q1 4 2 4 2 1 7 14 5 12 6 13t4 9q3 9 3 11v7h3v-1h1v-2h1v-1h1v-1h1v-1l3-4q4-4 6-11t11-19 10-13q1 0 2-3 1-4 2-5 1-2 2-2t3-4q1-3 2-4 1 0 6-7 4-8 6-9 2-2 4-6 1-4 2-4t2-3q2-4 5-5 3-2 6-8 4-5 6-7 1-2 4-7t4-6q1 0 1-1t3-3 4-5 2-3 3-3q2-4 5-7t5-6q1-3 6-7 4-4 5-5 0-1 3-3 4-3 6-8 3-6 11-13 7-8 9-12 2-5 6-13 4-9 4-11v-2h1v-1h1v-2h3v-1h1v2h1v1h2v6q0 6 9 8 9 0 12 2t4 3l2 1h1v1h1v9h-1l-11 6q-12 5-20 10-8 6-9 6-1 1-3 10 0 10-3 15-2 5-5 10-2 5-7 12-5 8-5 13-1 4-3 6-3 2-6 9t-4 7-3 3q-1 3-5 8-5 4-7 9-3 4-4 8-2 3-5 6-3 2-6 6-3 3-5 5-1 3-6 6-4 3-10 8t-6 6-1 1q-1 1-1 6 0 4 2 5t3 3q1 1 1 32 2 30 2 50 2 20 1 43t-1 31q-2 9 0 22 0 12 2 13 0 1 0 4-2 3-2 6t2 21q2 19 3 48 1 28 1 34 2 7 2 9 2 2 2 27 2 26 2 30 2 3 2 16 1 14 0 16 0 4-3 4-3 2-48 2-45 2-54 1h-9v-2q0-2 0-7 0-4-2-12 0-8 0-9t0-4q-2-3-2-10t1-7 1-2-1-2q-1-1-3-16-2-16-2-20 1-4 0-4t-1-9 1-9 0-3q-2-3-1-5 1-1-1-6-2-6-2-16v-14l-1-1-1-1h-6v30q-2 29-1 35t0 31q-1 26-1 44 0 17-1 18-2 2-9 2-8 0-10 0h-3v-2l-1-1v-1h-3v-1h1v-1t1-1 3-6q2-6 2-9 0-4-1-14t1-13q0-3-1-7-1-3-1-10 2-7 2-15t0-15q2-6 2-14 0-9-1-19t1-14q0-4 0-9t2-30q2-26 3-28 1-3 1-12 0-8 2-20 2-11 1-15t1-11q2-8 1-10 0-1-1-1-1-1 1-2 1-2 1-9 0-6 2-20t2-23q2-9 2-15 0-5-1-17t1-17q0-6-1-7t-1-14 2-14 2-3q0-3-1-3t-3-5q-3-6-10-17t-8-14-2-3-3-6q-1-7-3-9-1-1-2-5 0-4-5-7l-4-3h-5v1q0 1-3 3-3 1-5 7t-4 12q-2 7-6 17t-5 10q-1 1-3 9t-3 15q-1 6 1 10t2 18q0 13 2 24t2 15 0 7q0 4 2 12 2 9 2 25 2 16 4 46t4 47 2 32q0 16 4 50t6 46q0 11 2 16 0 4 2 8 0 5 0 9t2 13q0 9 2 20 2 10 2 11 0 0 0 3v6h-1v1h-1v1h-2q-1 0-36 0t-64 0h-30v-3q0-3 1-4t3-6 0-5q-2-1-2-2 0-2 1-2t1-8q-1-8 0-8t1-8q1-7-1-12 0-6 2-19t-3-16q-4-3-9-4l-6-1-1 1-1 1h-1v1h-1v3q0 2 1 27t3 33q0 7 2 9 0 2 0 13 0 10-1 11t-11 1h-10v-1h-1v-1h-1v-2q0-1 0-2t2-2q2 0 2-3-1-3-2-3t0-2q0-1 2-7 0-6 0-9-2-3 0-8 0-6 0-9-2-3 0-8 1-5 0-5t-1-4q-1-4 1-6 0-2 0-2-1-1-1-3t1-2 1-1q-1-1-3-2-2-2-2-3t0-10 1-13q1-5 0-5t-1-17 0-22q0-6 0-20 2-15 1-17t0-3q1-2 0-5t0-15q1-13 1-17t2-13q2-8 2-21t1-25q1-13 2-28 1-16 1-24 0-7-1-16 0-10 0-13 0-4 1-4t1-1-1-1q-2 0-2-2t0-7 0-14q0-10 0-11-1-1-2-6 0-5 0-15 0-11-2-16-2-6-3-9t-2-7q-1-5-2-8t-4-10q-2-7-3-7-1-1-2-3v-2h-1v-1h-1v-1h-6v3l-1 3q-1 2-2 3-1 0-3 7-3 6-4 6t-4 10q-3 9-6 10-2 1-6 9-3 9-6 16-4 8-2 17 2 10 3 24t3 29 4 25q0 11 2 14 0 2 2 26 0 25 4 38 2 13 2 17-1 3 2 33 2 29 4 41 0 12 2 22 2 11 4 15 2 5 2 15t2 17q0 8 2 10 0 2 1 9t3 18 2 17q0 7 2 10 0 2 2 12 2 11 2 13v2h1v1h-1v2h-4q-3 0-24 0l-20-1v-4q0-4 0-7 0-2 0-4t-2-6-1-6 0-5-2-15q-1-11-3-18t-2-12q0-4 0-8v-6h-1v-1h-1v-1h-1v-1h-1v-1h-5v1h-1v5q0 3 0 4 0 2 1 4 1 3 2 8 1 4-1 6 0 1 0 4 2 3 2 10 2 8 2 23 2 15 0 22t-13 8-42 2-33 0q-2-2-3-29-1-26-2-26t0-2q1-3-1-14 0-11 0-14t1-4-1-4q0-4-1-8 0-5 1-5t1-1q-1-2-2-4-1-1-1-16t0-34q0-18 0-24-2-6-2-17t0-17q-2-5-2-8t0-20q-1-16 0-16t1-1-1-1-1-3q1-3 1-7 0-5 0-7t-2-7q0-4 0-8 0-5-1-30t-1-57q-2-32-3-35-1-4-2-12-1-7-2-12-1-4-1-10t-2-8q0-2-2-8l-2-6v-2h-2v-1h-1v-1h-5l-1 1-1 1-4 16q-4 15-5 20t-1 14q2 9 3 12 1 4 3 18t2 34 2 37 3 44 3 51q2 25 4 70 2 44 4 62 2 17 2 18 0 2 2 16t4 19 2 17 2 20q0 7 0 8v1h-1q-1 1-9 1-8 2-79 2l-71 2v-1h-1v-1h-1v-2q0-1 1-2 1-2 1-14t-2-14q0-3-1-14-1-10 1-11 1-1 0-1-1-2-2-13 0-12-2-17 0-4 0-28 0-25-1-42t0-19 0-16 0-14q1-1 2-27t3-50 2-32q-2-9 0-20 0-10 2-24 0-15 2-20 2-4 2-11 1-7 1-11-1-5 1-9t3-8q0-4-1-4-1-1-2-4-2-4-4-7-3-2-3-3t-2-2q-1-1-6-3-4-2-7-4-2-2-4-6t-3-5-9-11q-8-11-10-13t-2-3-1-1-1-2q-1-2-2-2-1-1-3-3-1-3-4-5-3-1-4-5t-4-6q-3-1-2-8 1-8 6-22 5-15 6-17t2-7q1-4 2-5 2-1 2-3l1-3-1-1v-1h2l1 1 5 3q5 3 8 5 3 1 6 6t8 12q4 7 5 7t4 7q3 6 5 8 3 2 7 10 6 8 7 11 2 3 3 3t4 6q2 5 4 6 2 2 3 5t2 3 6 7 9 16 7 13 7 14q4 9 6 13t5 10 3 11v4l1 2v2h3l1-1 1-1h1v-1h1v-3h1t0-2q-1-2 1-4 0-1 2-8 2-6 3-10t1-8q0-3 0-6 2-2 2-5t2-7 2-8q0-5 0-7 1-3 2-5 1-3 2-3t1-3q-1-3 0-5t3-4q2-3 4-11 1-10 2-14 2-4 4-9 2-6 5-15 3-8 3-12-2-3-4-6-2-4-3-10-1-5-5-8-4-2-4-9t-1-8-9-3q-8-3-8-4t-4-2q-3-2-5-4-3-2-5-8l-2-5h-1v-1h-1v-1l-1-3v-2h4v1h1v1l10 2q9 2 10 1 1 0 1-1t6 0q6 0 12 6t7 10q2 4 2 10t2 7 2 1v1h1v1h1l2 1 1 1h3l1-1q1 0 1-1t1-1q1-1 5-5 3-4 4-8 2-5 3-6 1-2 6-12 5-11 6-11t2-2 2-5q0-4 1-4t2-8q0-7 1-7t2-3q1-4 2-5 2-1 2-5l-1-3 1-1 1-1v-1h5v1h1v2q1 2 2 2t2 2q0 1 4 1t8-2 4-4q1-2 4-2h2l1 1 1 1h1v1h1l-1 7q-1 7-3 10-4 4-6 8t-6 10-8 8-7 5-5 7q-2 3-3 10-1 8-2 8t-6 16-7 20q-2 3-1 7 1 3 9 16t9 17q2 4 3 4t2 3q0 3 1 3t5 8q5 8 6 13 2 4 3 4t3 4 4 8q0 4 5 9 5 6 8 14 3 7 7 14 4 6 4 7v1h1v1h1v1h5v-1l1-1v-1h1q0-1 1-1 2-1 3-5 1-3 3-10t4-12 4-12q2-6 4-7 2-2 6-12 4-11 6-13 2-3 2-5 1-2 2-2t2-4q0-4 1-4t3-8q2-7 5-10 3-2 3-4t4-9 5-8q2-1 2-4 0-2-1-2t-1-1-1-1-2-1q0-2-1-7t-2-5-2-2q-1-3-1-7t-1-7q-1-4-3-12t-2-12-2-7q0-3-6-7-4-5-7-7-3-3-5-6t-3-6-5-7l-2-3h-1v-1h-1v-4l1-1 1-1h10q6 2 11 4 5 4 7 4t3-2 7 0q6 1 8 8 2 6 3 20 1 15 2 17 2 1 3 2 1 0 4 4 2 4 3 7 1 4 2 4h1l2 1 2 1h1v-1h1v-1h1q1 0 4-2t5-8q2-5 4-6 2 0 4-4t3-4q1-1 3-4 2-4 2-11v-7h1l2-1h2v1l1 1 3 4q3 3 10 3 7-2 9-3t2-2 2-1q1 0 1 1h1v1h2v1h1v1h1v2l1 1v1h2l-1 7q-2 7-7 11-5 3-7 5-3 3-4 3-2 0-2 1t-1 1-2 2-7 5-9 15q-3 11-7 20t-4 12q0 2 6 16t9 19 5 9q0 5 6 17 4 12 6 15 1 2 2 3 1 0 7 13 5 13 9 18t8 11 5 10q1 3 2 5 1 1 1 3v2h4l3-1h2v-3q0-3 1-3 2 0 3-3 1-2 3-8 2-7 6-16 4-10 6-15 2-6 3-6t1-2q0-3 1-3 1-1 2-4 1-4 3-5 1-2 2-4 1-3 2-3t1-2q-1-2 0-3 1 0 7-12 5-12 6-12t1-1q-1-1 1-4t4-8 3-6 2-4q1-2 2-2 1-1 1-4t2-4q1-1 1-2 1-2 3-7t2-8q0-2-1-4t-2-2-2-2q-1-3-3-11-3-9-4-11 0-2-1-3t-1-4-4-7q-4-5-2-8 2-2 2-6t-2-5-2-2-7-7q-6-6-8-9-1-3-4-5-2-2-2-4-1-3-3-6l-2-2v-2q0-1 0-3t1-4zm-81 280q-1-7 2-6 2 0 3 1 1 2 0 7 0 5-2 4-3 0-3-6zm-158 11h-2v-4q-1-5 0-5 2 0 3 3 1 4 1 5t-2 1zm414 166v3l-1 1v3q1 2 1 3v4l-1 2-1 3v-1h-1v-1h-1v-4q0-4 1-5v-1h-1v-3h-1v-1h-1v-9q0-6-2-24t-2-25-2-9 0-6q0-4-3-18-3-13-5-14 0-2-2-18 0-15-2-18 0-2 2-6 4-3 7-6 3-4 6-5 3-2 6-6 4-5 8-3 3 1 5 6 2 4 0 8-2 3-2 18t-1 46q-1 30-1 34t-1 4 0 12q1 11-2 18t-3 12 0 6zm-406-131v1h-1q-1 0-1-5t1-5 1 4 0 5zm0 36v-5q0-3 0-11t1-8q2 1 4 5 3 5 2 9 0 3 0 6 1 3-1 5-1 2-4 1-2-1-2-2zm8 13q4 0 4 2t0 5q-1 3-4 3t-4-2q0-1 0-5t4-3zm-1 17l1-1 3 2q3 3 3 10t2 14q0 8 0 12t3 6q3 1 2 4t0 14q1 10 3 14 2 3 2 6 0 2-1 6t1 14 4 14q2 3 2 5v2l-1 1-1 2v2h-1l-1 1-1 1h-1v-1l-1-1v-2h-2v-1q0-1-4-1h-5v-1q0-1 2-3 0-2 0-5-2-3-2-6t2-3q2-1 2-2t0-7q-1-7-5-8-3-2-1-9 2-6 3-10 1-3 0-3t-2-3-1-9-2-7q-2-2-3-17t-1-16q-2-1-2-5v-3q0-1 1-3t2-3zm-155 34l2-9 3 2q3 2 2 4t-2 4q-1 1 0 6 0 4 2 6 1 1 3 5 0 4 0 6-1 1-3 2t-3 5q-2 4 2 5 3 1 5 2 2 0 2 2 0 1-4 3-4 1-5 6 0 4 1 4 1-1 2-2 0-1 3 0 2 2 3 2h1v1h1v1h1l-2 3q0 3-2 5-2 1-2 6 0 6 0 8 0 1 1 2t0 2q-1 0-1 8 0 7 4 12 2 6 3 8 0 3-3 4-2 0-2 2 1 2 3 3 1 2 3 9 2 6 1 8-1 1-1 3t0 5v3h1v1h-8v-1h-1v-4h1q1 0 1-3t-1-4q-1 0-3-7-2-6-4-19-2-14-4-31t-3-38 3-21h3v-1h1v-2l-1-1v-1h-1q-2-1-3-1t-1-2 2-11zm156 62q1-1 3-1 1 0 1 1t-2 2q-2 0-2-2zm-174 154h-1v1h-1v1h-1v1h-3l-2 1-2 1h-2l-2-1h-1v-1l-1-1v-11q0-12 0-70 0-59 1-67 1-9 3-7 2 1 2 4 0 2 1 6 1 3 3 4 2 0 1 6-1 5-2 9-1 3-1 4t2 7 3 9 1 4q-2 1 0 7 0 6 2 7 0 1 1 7 0 6 0 9-1 3 1 7 0 5 0 14 0 10 2 12 0 3 0 10-2 6-3 7t-3 5q0 3 0 8t1 6q1 0 1 1zm195-103v1l3 3q4 4 3 11t-1 10q-2 3-4 5-3 2-4 0 0-1 0-2v-2q0-2-1-3t-2-9l-1-7q0-1 3-3l3-3v-4h-1v-1h-1v-2q0-1-4-1l-3 1h-1v-1h-1v-1h-1v-5h1l1 1h4q3 0 4-1t3 2q3 2 1 7 0 4-1 4zm168 38h-1l-2-10q0-11 2-11t4 5q0 6 0 8-2 1-2 5t-1 3zm-2 8q0-2 2-2 1 1 2 3 0 2-2 1-1 0-2-2zm-323 5q0-3 4-1 4 0 6 4 2 3 1 18 0 16-3 16-2 0-2-3-1-3-2-3 0-1-2-15t-2-16zm159 3q0-2 3-2 4 0 3 2t-4 2-2-2z" stroke="#0b0b0b"/>
  </g>
  <path d="m362 809q1-1 3-1 1 0 1 1t-2 2q-2 0-2-2z" fill="#d2d2d2" stroke="#d2d2d2"/>
  <path d="m758 784v-1h1v2q1 2 1 3v4l-1 2-1 3v-1h-1v-1h-1v-4q0-4 1-5v-1h1v-1z" fill="#dcdcdc" stroke="#dcdcdc"/>
  <path d="m549 906q0-2 2-2 1 1 2 3 0 2-2 1-1 0-2-2z" fill="#d1d1d1" stroke="#d1d1d1"/>
  <path d="m379 864l3-3h1l3 3q4 4 3 11t-1 10q-2 3-4 5-3 2-4 0 0-1 0-2v-2q0-2-1-3t-2-9l-1-7q0-1 3-3z" fill="#ececec" stroke="#ececec"/>
  <path d="m760 778v3l-1 1v1h-1v2h-2v-3h-1v-1h-1v-9q0-6-2-24t-2-25-2-9 0-6q0-4-3-18-3-13-5-14 0-2-2-18 0-15-2-18 0-2 2-6 4-3 7-6 3-4 6-5 3-2 6-6 4-5 8-3 3 1 5 6 2 4 0 8-2 3-2 18t-1 46q-1 30-1 34t-1 4 0 12q1 11-2 18t-3 12 0 6z" fill="#f0f0f0" stroke="#f0f0f0"/>
  <g fill="#efbc13">
   <path d="m399 268l-1 6v3l-1 1-1 1v1h-6v-1h-1q0-1-1-2 0-1-3-2t-7-6q-4-4-7-6-3-3-4-5-1-3-2-3-1-1-5-7t-8-13q-3-7-4-7t-2-4q-2-4-2-8t-2-7-2-7l-2-4v-1h-1v-1h-9v2l-1 10q-1 10-3 24t-4 22q-2 7-3 16-1 8-1 17-2 9-3 21t-3 14q0 2-2 9 0 7-2 9 0 2-1 8-1 7-2 10-1 4-1 8 0 5-3 8-2 4-9 4-8 0-10-2t-6-5-7-4-11-7q-7-4-12-8t-8-8q-4-4-12-6-7-4-14-8-8-4-10-7-2-2-6-4t-5-4-3-5-7-6q-5-4-11-14-5-10-6-10t-3-6q-3-5-5-7t-2-3-3-8q-3-6-4-10-1-3-3-5t-3-7q-1-4-3-5 0-1-2-8 0-7 4-11l4-4v-4h-2q-2 0-6-4-5-2-7-6-2-3-3-3t-2-2q-1-3-2-6-2-3-5-6t-7-4q-3-1-3-2t-1-1h-1v-1h-1v-3h1v-1h1v-1l1-1 1-1 6-4q5-4 12-4 6 0 6 4 1 4 8 5 6 1 12 5 6 3 7 7 1 3 3 7 2 3 2 7t-1 6q0 3 3 3 3 1 9 12 7 12 12 25t10 21 12 18q8 10 12 13 5 4 7 8 3 3 10 9 8 6 10 6t4 3q3 3 4 3t2 2 2 2 2 2q2 2 3 3l1 1h4v-1h1v-1h2l1-1q1 0 2-8 2-7 3-8t2-5q1-3 6-17t6-21q0-6 1-6t3-6q3-6 3-10t1-4 2-8q1-7 3-14t1-12q0-4 1-5 1 0 2-11 2-12 3-15t1-6 2-9 2-11 2-12 0-15q-2-9 0-12t2-24q0-22 0-29 1-7 5-6t9 4q4 3 6 5 0 3 1 9t3 7 4 5 1 13q-1 8-3 18-2 9-3 10-1 0-1 7t2 10 3 9q2 6 4 10 3 3 8 14t7 16q2 6 10 24 8 19 14 28 4 9 7 18t2 14z" stroke="#0d0d0d"/>
   <path d="m712 80q10 0 15 3t5 5q1 2 2 5 0 4-3 11t-4 7-2 3q-1 4-2 8-1 5-5 13-6 8-11 14-6 7-11 7t-6-2q0-1-4-3-3-1-5-6-1-4-3-7t0-8q0-5 1-11 0-7 2-11 3-4 5-7t3-6 2-3 2-4 5-6q5-2 14-2z" stroke="#0e0e0e"/>
   <path d="m113 404l-1 1v6h-2v-1h-1v-1h-1v-1h-2v-2q0-1-5-8-5-6-8-12-3-5-5-6-2 0-6-7-4-6-7-7-3-2-3-3l-1-1v-1h-1v-1h-1v-1h-1v-3l1-1 1-1h11q11 0 17 4t7 6q1 3 4 6t5 7 2 14-2 11q0 1-1 2z" stroke="#131313"/>
   <path d="m230 204l-1-2 7-1q7-1 20-1 12 0 15 8 3 9 3 15 1 6 2 6t3 5q1 4 1 18 0 15-6 17-6 3-14 1-9-2-11-4-3-2-5-6t-4-8q0-4-1-6t-2-2-3-16q-2-17-3-19-1-3-1-5z" stroke="#0e0e0e"/>
  </g>
  <path d="m362 696q4 0 4 2t0 5q-1 3-4 3t-4-2q0-1 0-5t4-3z" fill="#e3e3e3" stroke="#e3e3e3"/>
  <path d="m361 713l1-1 3 2q3 3 3 10t2 14q0 8 0 12t3 6q3 1 2 4t0 14q1 10 3 14 2 3 2 6 0 2-1 6t1 14 4 14q2 3 2 5v2l-1 1-1 2v2h-1l-1 1-1 1h-1v-1l-1-1v-2h-2v-1q0-1-4-1h-5v-1q0-1 2-3 0-2 0-5-2-3-2-6t2-3q2-1 2-2t0-7q-1-7-5-8-3-2-1-9 2-6 3-10 1-3 0-3t-2-3-1-9-2-7q-2-2-3-17t-1-16q-2-1-2-5v-3q0-1 1-3t2-3z" fill="#ebebeb" stroke="#ebebeb"/>
  <g fill="#efbc13">
   <path d="m757 534h-1v2h-9l-1-1-1-1h-1v-12q0-12 1-15t1-7q0-3-3-6-3-2-8-3t-6-7q-1-5 0-11 1-7 3-17 3-10 5-12 1-1 3-5 0-4 4-11 2-8 3-12 0-3 9-3 10 1 18 4t11 9 3 18q0 11-4 20-4 10-4 14-2 4-4 9-4 5-8 15t-4 14q-2 4-4 8-2 5-2 8 0 2-1 2z" stroke="#0e0e0e"/>
   <g stroke="#0f0f0f">
    <path d="m790 338l2 4v2h-1v1h1v1h1v1h1v-1h1v-1h1v-1l1-1 1-1v-1l2-3q2-4 3-4 1-1 3-6 0-4 6-15t8-11q2-1 2-4 0-4 5-12 5-7 9-13t5-7q0-2 1-2 2-1 5-8 4-7 7-10 2-2 7-8 5-7 5-8t1-1 4-9q3-10 6-18t3-11v-3h6v1l2 4q2 3 5 5 3 0 8-2t8-5q3-2 3-2v-1h8v6l-1 2q-1 2-4 8-3 5-4 5-1 1-1 2-1 2-2 2-1 1-4 7-4 6-7 14-3 7-4 7-1 1-4 5t-5 9-5 11q-3 5-5 6-2 2-9 17t-17 31q-10 15-12 24-2 8-3 8-2 1-5 10-4 9-4 13-2 4-6 9t-6 9-4 5q-1 0-2 3 0 3-5 3t-7-3q-2-2-8-3-5-2-7-6-1-5-3-6-1 0 0-4 0-3-1-3t-1-1q-1-2-2-10-2-8-4-12t-2-10q-2-6-2-12 0-7-4-15-2-8-3-11-1-4-3-14t-4-16q-2-5-4-12 0-7-2-12-2-4-4-15t-3-17q-1-7-2-7-1-1-2-5-1-5-5-9t-2-8q0-4-4-13-4-10-5-10t-1-3q-1-3 2-3 2 0 4 2t6 4q3 4 8 8 6 5 6 6 0 2 4 10 4 7 6 11 0 4 4 9 3 6 7 20 3 15 6 26 3 10 5 14 2 5 2 6t2 6q0 5 2 10 2 6 4 12 0 7 2 8 0 2 1 10 1 7 3 12z"/>
    <path d="m663.84 230l1.0211 6h7.1473v-1h1.0211v-1h1.0211l3.0632-5q3.0632-4 6.1263-7 2.0421-2 3.0631-3 0-1 2.0421-2 1.0211-1 3.0632-4t5.1053-4q3.0631-1 5.1052-3 1.0211-2 5.1053-5 4.0842-2 5.1053-3 0-2 0-2h1.0211v-1h1.021v-1h2.0422v-1h1.0211v-1h2.0422v1h1.0211v7l-1.0211 2q-1.0211 1-9.1894 15-8.1685 15-12.253 25-5.1053 11-6.1263 11-1.0211 0-1.0211 1t-1.0211 1-2.0421 3q-2.042 4-5.1052 14t-5.1053 13-6.1263 11l-2.0421 8h-1.0211l-1.0211 1-1.0211 1h-3.0632v-1h-1.0211v-1h-1.0211t-5.1052-3q-5.1053-3-7.1474-8t-4.0842-5q-2.042-1-3.0631-2-1.0211-2-1.0211-6-1.0211-5 0-5t1.0211-1q-1.0211-1-2.0421-15-2.0421-14-1.0211-14 1.0211 0 1.0211-1-1.0211-2-3.0632-6-2.0421-3-2.0421-16 0-12-1.0211-17t-2.0421-11q-1.021-5-2.042-9-1.0211-4-3.0632-13 0-8-2.0421-14-2.0421-5 0-4 3.0632 0 8.1684 3 4.0842 2 4.0842 3t4.0842 3q2.0421 2 5.1052 7 3.0632 6 4.0842 7 1.0211 1 2.0421 5 1.0211 4 2.0421 6 1.0211 2 4.0842 16t4.0842 16q1.0211 3 2.0421 10z"/>
   </g>
   <path d="m585 318v1q0 1 1 1l-1 2q-1 2-1 4 0 1 0 2v2t-4-4l-4-4-1-1q-1-1-1-4 1-3 5-2 3 1 5 2 0 1 1 1z" stroke="#252525"/>
  </g>
  <path d="m504 601q-1-7 2-6 2 0 3 1 1 2 0 7 0 5-2 4-3 0-3-6z" fill="#e2e2e2" stroke="#e2e2e2"/>
  <path d="m354 647v1h-1q-1 0-1-5t1-5 1 4 0 5z" fill="#cacaca" stroke="#cacaca"/>
  <path d="m529 246h6v-1h1v-1l2-4q2-4 3-8 1-5 4-9t5-8q2-5 4-9 1-4 3-8 1-5 8-14t9-14q2-6 6-11t6-7 7-9q4-7 6-9 3-1 3-2t1-2q1 0 2-2 1-3 3-6 4-2 4-3v-1h4v-1h1v-1h3v3l1 1 1 1v1h1v2h-2v2q-1 1-2 2-1 2-3 6-2 3-3 3-1 1-4 5t-7 11-6 12q-2 4-4 6-3 2-4 5-2 2-8 20-6 19-8 20-1 0-4 7-4 7-5 15-1 9-4 12t-3 9-3 11q-3 6-3 10-2 3-3 16-1 12-3 14t-8 2q-5 0-6 0 0-1-9-4-8-3-10-7-3-4-6-6-3-1-8-7t-8-7q-2-1-2-4t-1-3q-2 0-2-2 0-1-2-3-2-1-3-4-1-2-2-2-1-1-3-3-2-4-3-8t-5-8l-4-3v-1h-1v-1h-1v-1h-4l-1 1-1 1-1 1q-1 1-1 4-2 3-5 9-3 7-4 7-1 1-5 7t-5 6-4 5l-3 5h-10v-6q0-1 2-4 2-2 2-6t4-14q2-9 4-15t3-11q2-5 4-5 2-1 4-7 3-7 2-14l-1-6v-1l-1-1v-1h-1l-1-1h-1v-2h-1l-1-1-1-1h-2v1l-1 1v2q0 2-4 12-2 11-2 14 0 2-3 6t-11 4-10-3-3-7q-1-3-2-3-1-1-1-3t-1-6q-1-3 0-14 1-10 2-12 1-3 2-8t2-8q0-3-1-3t-3-6l-2-6h1l1-1h11q10-2 12-2 3 0 4 0h2l1-1h1v-4q0-4-2-7-2-2-4-11t-4-13-4-10q-3-6-4-9 0-3-4-14l-2-11v-2h8v1l4 3q4 2 7 4 3 1 5 6t2 16q0 10-2 10-1 1 0 4 1 4 3 4 1 1 4 5t10 19 8 16l1 2h6v-1h1v-1h1v-1h1v-1h1q2-1 5-13 4-12 5-12t3-5q1-5 5-11 2-6 4-9 2-4 2-12t1-10q1-3 2-10 1-6 2-10t3-4q2 1 3 2 0 1 3 0 4-2 7-1t6 3 3 13-4 18-5 8-3 5-5 5q-2 1-5 9t-2 8q0 1 0 4 0 2-3 10t-7 17q-4 8-6 13 0 6-2 12-2 5-2 10 0 4 2 8 4 5 5 8 1 4 2 4 1 1 4 5t6 7q4 2 12 6 7 3 10 4 3 2 5 6 3 3 6 4 2 0 3 2t2 2z" fill="#efbc13" stroke="#0e0e0e"/>
  <path d="m206 747l2-9 3 2q3 2 2 4t-2 4q-1 1 0 6 0 4 2 6 1 1 3 5 0 4 0 6-1 1-3 2t-3 5q-2 4 2 5 3 1 5 2 2 0 2 2 0 1-4 3-4 1-5 6 0 4 1 4 1-1 2-2 0-1 3 0 2 2 3 2h1v1h1v1h1l-2 3q0 3-2 5-2 1-2 6 0 6 0 8 0 1 1 2t0 2q-1 0-1 8 0 7 4 12 2 6 3 8 0 3-3 4-2 0-2 2 1 2 3 3 1 2 3 9 2 6 1 8-1 1-1 3t0 5v3h1v1h-8v-1h-1v-4h1q1 0 1-3t-1-4q-1 0-3-7-2-6-4-19-2-14-4-31t-3-38 3-21h3v-1h1v-2l-1-1v-1h-1q-2-1-3-1t-1-2 2-11z" fill="#ebebeb" stroke="#ebebeb"/>
  <path d="m626 105l1-1h1v6q0 5-2 8l-3 4h-1t0 1h-1q-1-1-1-2v-5h-2l1-2q1-2 2-2t1-1 1-2l1-1v-1l1-1v-1h1z" fill="#efbc13" stroke="#282828"/>
  <path d="m551 898h-1l-2-10q0-11 2-11t4 5q0 6 0 8-2 1-2 5t-1 3z" fill="#dedede" stroke="#dedede"/>
  <path d="m383 860v1h-1v-4h-1v-1h-1v-2q0-1-4-1l-3 1h-1v-1h-1v-1h-1v-5h1l1 1h4q3 0 4-1t3 2q3 2 1 7 0 4-1 4z" fill="#e0e0e0" stroke="#e0e0e0"/>
  <path d="m864 88v4h-1t-3 4q-2 4-5 6-2 2-3 4t-12 5q-10 4-10 5t-1 1q-1 1-3 4-3 3-4 3t-7 6q-5 5-10 8-5 2-5 3t-7 5q-6 4-10 8-5 4-12 8-8 4-11 5t-6-3l-4-3v-2l-1-1-1-1v-1h-2v-1h-1v-1h-1v-1h1v-1l7-2q6-2 7-4t3-2q2-1 7-9 6-9 13-15 8-8 12-9 4-2 5-4 1-1 8-5t11-14q5-10 6-12 0-1 1-1t4-3q3-4 6-2t6 4q3 3 4 6 1 4 8 3t9 0 2 2 0 3z" fill="#efbc13" stroke="#101010"/>
  <path d="m346 612h-2v-4q-1-5 0-5 2 0 3 3 1 4 1 5t-2 1z" fill="#d8d8d8" stroke="#d8d8d8"/>
  <path d="m226 911q0-3 4-1 4 0 6 4 2 3 1 18 0 16-3 16-2 0-2-3-1-3-2-3 0-1-2-15t-2-16z" fill="#e8e8e8" stroke="#e8e8e8"/>
  <path d="m536 100q5 0 8 0 3 2 10 7 6 5 7 9 1 5 3 6 1 0 1 8 1 7-3 16-4 10-5 10t-3 4q-2 3-4 10-1 6-2 6-2 0-5 3t-7 4-8-3q-5-2-7-7-1-4-4-7-3-4-3-6 0-3 0-8 0-6 2-17t3-12 3-5q3-4 6-11t8-7z" fill="#efbc13" stroke="#0e0e0e"/>
 </g>
</svg>
