<?xml version="1.0" encoding="UTF-8"?>
<svg width="720pt" height="720pt" fill-rule="evenodd" overflow="visible" stroke-linejoin="bevel" stroke-width=".501" version="1.1" viewBox="0 0 720 720" xmlns="http://www.w3.org/2000/svg">
 <g transform="scale(1 -1)" fill="none" font-family="Times New Roman" font-size="16" stroke="#000">
  <g transform="translate(0 -720)">
   <g stroke-linejoin="miter" stroke-miterlimit="79.84" stroke-width="1.066">
    <path d="m342.71 166.4l9.235 12.655 12.658-5.816 4.447-3.76 13.341-20.861 10.606-7.526 11.973-5.129 7.186 19.493 6.156 15.391 6.158 15.048 4.788 12.995 7.87 10.258 12.657 15.048 17.105 20.179 14.366 14.704-3.42 3.42-24.631 13.68-1.025 6.84 0.341 23.256-6.499 21.204-6.842 27.7 3.763 30.439-4.447 13.337-7.527 23.937-6.842 22.915-2.736 5.816-15.053 14.361-10.946 11.628-1.027 8.208-2.052 6.84-4.447 13.337-9.238 22.231-18.129 10.943-5.131 1.709 3.419 2.052h5.816l3.422 0.684v8.21l-3.079 5.47-3.763 2.736-0.684 3.763h3.079l-2.052 6.154-4.45-4.102-2.736-3.763-5.815 29.069 4.447-8.89 3.08-10.944 3.763 4.445 1.368 12.655 0.343 12.312-15.739-7.867 4.449 5.815 5.816 4.785-9.238-1.368-9.578-4.444-3.42-12.312-3.079-11.287 6.842-20.861 11.971-17.1 6.842-12.996 9.238-10.944 3.079-4.104 10.946-22.228 4.791-8.892 3.42-4.445 7.183-9.235-9.919 6.156-6.502 11.287-6.156 9.917-7.869 14.707-4.104 2.733-8.895 6.5-5.474 14.363-7.867 10.26-6.158 6.156-7.87 11.969-4.445 12.653-3.079 8.894-15.737 32.145-25.315 21.204-14.711 10.26-15.735 9.576-4.106 2.052-17.105 13.68-17.104 12.312-7.527 6.499-6.842 6.837h-8.208l-6.842-4.104 6.499-1.708 5.815 1.368-2.395-3.42-2.393-3.761 5.131-6.156 7.527-3.422 3.76 2.736 1.027 2.738-0.34 4.786 2.395-3.077 2.393-3.42-3.08-7.867-4.787-4.445-8.554-1.711-8.21 14.707-11.971 11.628-9.922-7.183-9.578-6.497-5.134 8.208 7.186-0.684 6.499 3.76 3.422 6.5-8.212 18.124-8.552-5.128-6.499-7.524v-9.576l-3.079 3.76v5.132l2.395 5.128 5.472 7.183-7.867-5.131-4.447-5.128-2.395-5.816 2.738-11.284 4.788-9.919 4.106-5.129 11.972 5.129 6.158-1.025 3.422-7.183 6.84-11.969 2.395-10.601-4.79-1.368-3.761 10.942-5.815 8.892-4.79-3.418-10.949-7.183 5.474-8.549 7.527-6.156 5.815 2.736 5.474 3.42-1.711-3.42-9.921-13.339-7.184 8.892-4.104 8.551-4.106 8.549 8.21 5.815 6.159 7.181-6.843-1.709-7.867-6.158-4.79-8.549 3.763-16.757 4.79-14.707 2.736-4.788 3.423-8.548 8.208-0.344 5.131-1.708-7.867-2.396-6.843-4.444-1.368-11.285-1.711-10.26 3.079-12.655-3.422 2.736-9.235 0.684-1.711-16.757-7.183-12.996-1.368-13.339-1.368-12.309-3.42-11.63-4.45-35.222-1.368-35.227 17.105-27.36 8.894-13.68 11.974-18.809 9.237-26.332 4.104-29.753 20.868-39.674 16.42-42.064 6.5-11.285 8.553-10.26 6.842-7.865 6.843-7.526 3.077-17.441-4.445-14.704-1.371-28.044 10.265-23.597 24.629-13.679 18.132-2.736 17.104 8.548 11.631 11.628 11.289 13.339 10.606 14.021 10.605 29.069z" fill="#fff0e1" stroke="#000"/>
    <path d="m128.9 634.58l2.052-8.551 7.526-12.652 7.183-10.944-4.104-13.68-6.158-21.204-6.84-20.861-6.161-10.603-4.788-3.417-1.709-5.131-5.817-51.984-2.736-51.64 15.393-21.888 14.369-20.861 13.001-17.1 3.42-25.307 2.736-25.99 14.709-22.915 7.186-25.992 7.867-23.255 14.369-18.809 17.104-19.493 12.317-19.835-0.343-9.92-3.764-7.523-6.499-23.94 4.104-27.017 8.211-9.233 9.578-7.523 11.289-6.84 10.947-5.132 31.473-2.052 19.843 22.572 7.183 8.551 11.29 15.389 16.418 30.437-6.84 6.156-10.605-29.069-10.606-14.021-11.289-13.339-11.631-11.628-17.104-8.548-18.132 2.736-24.629 13.679-10.265 23.597 1.371 28.044 4.445 14.704-3.077 17.441-6.843 7.526-6.842 7.865-8.553 10.26-6.5 11.285-16.42 42.064-20.868 39.674-4.104 29.753-9.237 26.332-11.974 18.809-8.894 13.68-17.105 27.36 1.368 35.227 4.45 35.222 3.42 11.63 1.368 12.309 1.368 13.339 7.183 12.996 1.711 16.757 9.235-0.684 3.422-2.736-3.079 12.655 1.711 10.26 1.368 11.285 6.843 4.444 7.867 2.396-5.131 1.708-8.208 0.344-3.423 8.548-2.736 4.788-4.79 14.707-3.763 16.757 4.79 8.549 7.867 6.158 6.843 1.709-6.159-7.181-8.21-5.815 4.106-8.549 4.104-8.551 7.184-8.892 9.921 13.339 1.711 3.42-5.474-3.42-5.815-2.736-7.527 6.156-5.474 8.549 10.949 7.183 4.79 3.418 5.815-8.892 3.761-10.942 4.79 1.368 2.736-4.447 9.581-14.021 8.551-16.415 4.447-8.892 5.131-7.181 9.922-9.235 9.922-9.917 9.235-5.472-6.5 6.84-6.158 6.497-12.998 13.68-9.581 16.416-6.84 15.731-7.869 15.389-2.393 4.788-9.581 6.84-6.84 11.969-3.422 7.183-6.158 1.025-11.972-5.129-3.079-2.393-4.447-7.183-5.131-8.551 0.341-14.362z" fill="#000" stroke="#000"/>
    <path d="m403.26 116.81l8.897 31.464 7.867 17.1 9.578 19.152 7.527 15.731 16.077 18.809 17.105 17.1 18.816 14.364 20.527 10.944 47.891 3.076 7.87-8.891 6.156-9.576-14.369-20.177-9.235-24.624-10.262-14.364-12.315-11.628-10.605-8.891-7.87-62.926 9.581 52.666 5.815 10.603 8.551 7.524 14.369 9.916 5.131 5.132 8.551 19.492 8.894 18.811 8.895 8.549 11.289 5.813 7.527 0.343 4.447-8.208 18.132-11.628v13.68l-9.922 3.42-4.788 4.104-2.738 6.84-4.104 5.129-5.134-0.341-8.551-3.42-3.42 0.684-10.262 11.968-11.29 10.601-51.998-4.104-14.368-4.445-27.71 14.024-2.052 17.099-2.396 15.048-9.578 20.518-5.131 8.892 2.393 36.251-7.183 35.566-4.788 14.707-3.08 16.759-10.605 18.124-15.053 13.337-3.42 6.499-2.738 7.181-3.763 14.023-4.445 12.996-5.818 13.336-7.183 6.84-2.395 10.944-5.131 9.576-6.156 12.996 1.709 41.037-16.762-1.708-17.447-7.184-6.843-18.808 4.791-10.603 3.079 11.287 3.42 12.312 9.578 4.444 9.238 1.368-5.816-4.785-4.449-5.815 15.739 7.867-0.343-12.312-1.368-12.655-3.763-4.445-3.08 10.944-4.447 8.89 5.815-29.069 2.736 3.763 4.45 4.102 2.052-6.154h-3.079l0.684-3.763 3.763-2.736 3.079-5.47v-8.21l-3.422-0.684h-5.816l-3.419-2.052 5.131-1.709 18.129-10.943 9.238-22.231 4.447-13.337 2.052-6.84 1.027-8.208 10.946-11.628 15.053-14.361 2.736-5.816 6.842-22.915 7.527-23.937 4.447-13.337-3.763-30.439 6.842-27.7 6.499-21.204-0.341-23.256 1.025-6.84 24.631-13.68 3.42-3.42-14.366-14.704-17.105-20.179-12.657-15.048-7.87-10.258-4.788-12.995-6.158-15.048-6.156-15.391-7.186-19.493-1.711-19.152z" fill="#000" stroke="#000"/>
    <path d="m389.24 0.533v11.627l1.711 12.312 7.183 3.077 6.842 3.763 14.71 6.838 14.368 6.158 34.894 12.312 24.29 8.892-23.604-5.474-31.476-9.574-24.287-6.156-4.448 19.152-4.788 19.149-1.37 22.572-16.418 14.364-16.764 8.892-16.421-46.168-8.21-14.705-10.262-14.023-11.974-13.337-6.499-7.524-9.237-6.84-7.868-3.763-7.185-3.077-23.261-1.711-22.922 5.131-10.262 10.944-10.263-1.37-8.551 3.763-13.344 10.603-12.657 9.917-15.05 36.252 1.025 44.8 1.711 15.048 2.736 13.68 6.501 25.648 7.867 23.94-2.052 3.42-1.027 3.763-7.183 10.258-6.499 9.235-3.763 15.389-3.423 14.363-5.472 14.364-4.106 7.524-9.237 11.969v15.048l-1.368 13.339-1.709 4.445-2.395 3.42-2.736 8.891-2.396 14.708-8.894 11.625-4.106 6.156-13.683 19.495-14.368 18.809 1.368 21.203 1.368 20.177 2.395 26.335h-31.133v-489.05h313.7z" fill="#800101" stroke="#800101"/>
    <path d="m325.95 584.65l-7.183 10.944-5.131 11.628-5.131 10.26-9.581 7.18-26.34 15.732-21.895 14.023-5.472 3.761-3.079 5.472-8.21 9.919-10.606 5.813-10.262 6.156-6.158 5.812-11.974 11.288-7.867 1.708-15.737-7.18-11.63 16.756-2.052 3.763-4.449-1.027-6.5 0.684-5.815 2.052-9.921-8.208-3.763-4.788-6.5-7.864-0.343-3.42 4.45-8.892-5.818-9.576-5.131-8.208 6.158-13.68 5.816-13.68 3.079-6.497-0.341 14.362-4.45 13.682-1.368 6.156 7.527 7.865 3.763-5.129 4.106-6.84 3.079 2.393-4.106 5.129-4.788 9.919-2.738 11.284 2.395 5.816 4.447 5.128 7.867 5.131-5.472-7.183-2.395-5.128v-5.132l3.079-3.76v9.576l6.499 7.524 8.552 5.128 8.212-18.124-3.422-6.5-6.499-3.76-7.186 0.684 5.134-8.208 9.578 6.497 9.922 7.183 7.183 1.024 6.842 4.104h8.208l6.842-6.837 7.527-6.499 17.104-12.312 17.105-13.68 4.106-2.052 15.735-9.576 14.711-10.26 25.315-21.204 15.737-32.145 3.079-8.894 4.445-12.653 7.87-11.969 6.158-6.156 7.867-10.26 5.474-14.363 8.895-6.5 4.104-2.733 7.869-14.707 6.156-9.917 6.502-11.287 9.919-6.156-7.183 9.235-3.42 4.445-4.791 8.892-10.946 22.228-3.079 4.104-9.238 10.944-6.842 12.996-11.971 17.1-6.842 20.861-4.791 10.603z" fill="#000" stroke="#000"/>
    <path d="m618.1 213.25v9.235l-18.132 11.628-4.447 8.208-7.527-0.343-11.289-5.813-8.895-8.549-8.894-18.811-8.551-19.492-5.131-5.132-14.369-9.916-8.551-7.524-5.815-10.603-9.581-52.666 7.87 62.926 10.605 8.891 12.315 11.628 10.262 14.364 9.235 24.624 14.369 20.177-6.156 9.576-7.87 8.891-47.891-3.076-20.527-10.944-18.816-14.364-17.105-17.1-16.077-18.809-7.527-15.731-9.578-19.152-7.867-17.1-8.897-31.464v-11.628l1.37-22.572 4.788-19.149 4.448-19.152 24.287 6.156 31.476 9.574 23.604 5.474-24.29-8.892-34.894-12.312-14.368-6.158-14.71-6.838-6.842-3.763-7.183-3.077-1.711-12.312v-11.627h42.078l34.894 14.363 25.315 20.52 11.287 14.021 6.501 20.179 6.843 30.777 6.84 37.961 4.79 19.152 14.028 11.627 17.102 14.364 5.818 9.919 6.84 22.57 5.131 13.339 15.739 5.472 3.42-7.181 5.131-5.474 8.21-4.788 8.895-4.104z" fill="#ffc0c0" stroke="#ffc0c0"/>
    <path d="m403.26 116.81l1.711 19.152-11.973 5.129-10.606 7.526-13.341 20.861-4.447 3.76-12.658 5.816-34.893 20.519-28.051 30.437-19.157 29.412-19.159 30.436-15.393 27.019-11.631 22.57-6.499 25.307 2.052-37.96 5.815-12.312 11.974-20.52 11.973-21.888 13.342-23.253 14.709-23.599 11.974-20.179 16.077-16.413 14.369-9.576 15.737-8.892 7.526-3.763 17.789-8.549 10.262-13.337 3.422-9.919 6.499-5.472 8.895-2.052 13.682-10.26z" fill="#000" stroke="#000"/>
    <path d="m618.1 243l-5.134 1.368-4.788 2.736-4.447 6.837-3.422 6.843-7.865 0.684-8.897-1.368-11.973 10.26-12.315 10.26-32.5-0.344-31.812-8.208-7.529 1.712-6.84 4.104-5.817 3.42-5.129 4.444-1.37 19.493-5.472 17.443-2.739 4.788-3.076 4.788-3.082 6.156-3.42 6.497 2.052 27.359-6.156 26.676-6.501 29.412-6.156 30.777-10.947 10.26-11.976 10.944-2.392 9.235h209.7v-246.58z" fill="#800101" stroke="#800101"/>
    <path d="m618.1 213.25l-8.895 4.104-8.21 4.788-5.131 5.474-3.42 7.181-15.739-5.472-5.131-13.339-6.84-22.57-5.818-9.919-17.102-14.364-14.028-11.627-4.79-19.152-6.84-37.961-6.843-30.777-6.501-20.179-11.287-14.021-25.315-20.52-34.894-14.363h186.78v212.72z" fill="#800101" stroke="#800101"/>
    <path d="m294.82 83.293l-23.947-2.736-10.603 2.052-22.238 11.288-17.102 16.415-3.423 21.886-3.422 21.547 8.213 14.364 3.076 9.232-1.368 9.92-13.682 16.415-8.21 8.208-4.107-8.894-8.551-65.318 3.763-63.611 11.971-3.42 11.976-3.077 21.552 3.077 20.182 2.052-15.737-6.156-11.63-2.736-15.737-4.447 0.684-4.786 5.818-14.023 11.971 1.368 10.948-1.709 6.159-10.26 22.919-5.472 22.92 3.077 6.159 3.079 11.971 5.47 7.869 4.106 11.974 13.337 10.262 14.023 8.21 14.705 16.421 46.168-5.815 8.208-3.423 10.26-11.289 13.337-11.287-31.121-18.816-31.464-21.209-19.492-7.526-7.524-18.816-8.208 12.658 9.235 10.262 11.625z" fill="#ffc0c0" stroke="#ffc0c0"/>
    <path d="m217.84 374.33l-6.84 15.732-9.581 28.385-6.156 30.439-5.474 14.704-7.526 12.653-7.527 13.68-6.156 19.495-7.526 18.125-8.553 19.492 1.027-18.125-2.736-19.492-6.502-12.655-11.971-1.368 18.13-3.761 3.079-25.651v-23.94l3.42 28.73-3.42 26.674 2.395 11.287 1.711 10.601 10.946-18.468 5.472-23.94-5.472-6.154-5.815-3.763 12.658 1.711-10.949-7.867 7.526 1.709 7.186 0.343 5.131-6.156 4.788-6.499 3.763-25.989 6.499-23.94 18.473-25.992z" fill="#000" stroke="#000"/>
    <path d="m254.11 419.47l0.684 17.781-9.579 6.84-5.131 17.443-7.526 22.913-6.843 10.944-4.787 9.235-6.159 7.181-27.026 40.014 25.315-41.039 9.578-17.786 5.131-11.626 4.791-10.944 7.526-22.231 3.42-11.625 7.183-4.447 3.423-12.653z" fill="#000" stroke="#000"/>
    <path d="m294.48 422.55l0.341 15.048-2.736 12.995-8.894 11.287-5.475 10.944-3.42 11.969-4.106 13.337-5.474 17.443-16.762 31.461 12.999-32.488 10.264-38.304 2.393-9.917 4.79-6.84 11.631-16.416 4.449-20.519z" fill="#000" stroke="#000"/>
    <path d="m128.9 634.58l-7.867-10.603-3.08-6.496 0.341-8.208 0.341-14.023-2.052-12.994 5.474-24.283 0.341-21.888 6.161 10.603-1.37 4.104-1.025 6.497-2.395 20.179 4.79 19.833-2.054 8.892-1.709 9.236 1.368 4.787 4.788 5.813-2.052 8.551z" fill="#000" stroke="#000"/>
    <path d="m294.82 83.293l-10.262-11.625-12.658-9.235 18.816 8.208 7.526 7.524 21.209 19.492 18.816 31.464 11.287 31.121-16.418-30.437-11.29-15.389-7.183-8.551-19.843-22.572z" fill="#000" stroke="#000"/>
    <path d="m179.19 354.15l13.682 25.308-1.368 10.944-2.052 10.603-1.027 3.077v-15.389l-14.369 22.229-5.131 7.524-11.973 16.756 4.106-10.6 9.578-15.389 2.396-4.447 4.104-8.549 3.422-8.208 3.42-12.996-4.788-20.863z" fill="#000" stroke="#000"/>
    <path d="m128.56 546.69l6.84 20.861 6.158 21.204 4.104 13.68-7.183 10.944-7.526 12.652-4.788-5.813-1.368-4.787 1.709-9.236 2.054-8.892-4.79-19.833 2.395-20.179 1.025-6.497 1.37-4.104z" fill="#fff0e1" stroke="#000"/>
    <path d="m298.92 533.35l-13.339 27.36-6.842 17.441-3.423 10.944-7.183 7.526-19.157 14.021 8.552-10.26 10.605-9.917 3.42-8.551 3.763-7.524 11.633-20.861 11.971-20.179z" fill="#000" stroke="#000"/>
    <path d="m177.48 689.3l-7.183-1.024 11.971-11.628 8.21-14.707 13.341-9.917 13.344-11.628 12.658-11.625 12.314-12.315-16.421 20.863-19.84 19.834-3.763 3.079-3.079 3.42 4.787 4.445 3.08 7.867-2.393 3.42-2.395 3.077 0.34-4.786-1.027-2.738-3.76-2.736-7.527 3.422-5.131 6.156 2.393 3.761 2.395 3.42-5.815-1.368-6.499 1.708z" fill="#000" stroke="#000"/>
    <path d="m403.26 105.18v11.628l-13.682 10.26-8.895 2.052-6.499 5.472-3.422 9.919-10.262 13.337-17.789 8.549 6.84-6.156 11.289-13.337 3.423-10.26 5.815-8.208 16.764-8.892 16.418-14.364z" fill="#fff" stroke="#000"/>
    <path d="m344.42 464.27l-2.736 5.129-7.526 8.551-8.895 16.073-14.366 19.836 12.314-23.256 8.895-18.468 12.314-7.865z" fill="#000" stroke="#000"/>
    <path d="m128.56 648.95l5.131 8.551 4.447 7.183-4.106 6.84-3.763 5.129-7.527-7.865 1.368-6.156 4.45-13.682z" fill="#fff0e1" stroke="#000"/>
    <path d="m185.69 358.6l10.603 15.048 10.949 9.917-4.791 1.711-7.526-8.892-9.235-17.784z" fill="#000" stroke="#000"/>
    <path d="m156.27 571.32l6.501 5.472 6.499 5.472 1.028 0.682-6.159-3.077-7.185-1.711-3.42 2.736-2.736 2.738-0.684 1.709-1.027 1.027 2.052-6.158 2.395-6.838 1.368-1.711 1.368-0.341z" fill="#000" stroke="#000"/>
   </g>
  </g>
 </g>
</svg>
